<svg width="1110" height="365" viewBox="0 0 1110 365" fill="none" xmlns="http://www.w3.org/2000/svg">
<path fill-rule="evenodd" clip-rule="evenodd" d="M320.167 151.273C298.979 164.553 272.595 173.389 237.9 173.389C169.408 173.389 132.096 216.088 100.848 259.141C97.3258 263.994 93.8782 268.855 90.4702 273.66C78.7944 290.123 67.5839 305.93 55.4388 318.489C39.7157 334.747 22.2814 345.722 0.00293565 345.722C-0.552049 345.722 -1.00195 345.272 -1.00195 344.717C-1.00195 344.162 -0.552049 343.712 0.00293565 343.712C21.5217 343.712 38.4683 333.146 53.9941 317.092C66.0223 304.654 77.1109 289.02 88.769 272.583C92.1914 267.758 95.6628 262.863 99.2214 257.96C130.514 214.847 168.353 171.379 237.9 171.379C272.225 171.379 298.238 162.646 319.099 149.57C339.978 136.484 355.743 119.021 369.531 101.484C373.871 95.9648 378.023 90.4247 382.081 85.0107C390.875 73.2774 399.226 62.1364 408.071 53.0856C421.046 39.8078 435.267 30.8208 453.861 30.8208C472.636 30.8208 487.911 45.3338 502.091 66.4771C512.693 82.2842 522.83 102.032 533.447 122.714C537.06 129.752 540.728 136.897 544.489 144.033C559.333 172.196 575.645 200.254 595.789 221.271C615.913 242.266 639.799 256.172 669.821 256.172C700.36 256.172 722.703 262.951 740.708 273.15C758.69 283.337 772.295 296.912 785.361 310.389C786.178 311.231 786.992 312.073 787.805 312.913C800.03 325.549 811.977 337.897 826.909 347.302C842.795 357.31 862.086 363.995 888.681 363.995C914.89 363.995 934.681 344.823 951.43 315.473C967.667 287.021 980.854 249.337 994.18 211.259C994.586 210.098 994.992 208.937 995.399 207.776C1009.12 168.578 1023.09 129.25 1040.77 99.7283C1058.44 70.2205 1080 50.2109 1108.99 50.2109C1109.54 50.2109 1109.99 50.6608 1109.99 51.2158C1109.99 51.7708 1109.54 52.2207 1108.99 52.2207C1081.09 52.2207 1060.06 71.4342 1042.5 100.761C1024.94 130.073 1011.04 169.192 997.296 208.44L996.042 212.023C982.746 250.018 969.506 287.854 953.175 316.469C936.349 345.954 916.039 366.005 888.681 366.005C861.708 366.005 842.046 359.213 825.837 349.003C810.693 339.463 798.587 326.949 786.398 314.35C785.572 313.496 784.746 312.642 783.919 311.788C770.851 298.31 757.422 284.929 739.717 274.899C722.034 264.881 700.036 258.182 669.821 258.182C639.091 258.182 614.713 243.919 594.338 222.661C573.983 201.425 557.561 173.145 542.711 144.97C538.92 137.778 535.234 130.597 531.611 123.539C521.01 102.89 510.953 83.2976 500.422 67.5966C486.264 46.4865 471.517 32.8306 453.861 32.8306C436.022 32.8306 422.287 41.4134 409.508 54.4903C400.757 63.4454 392.539 74.4111 383.791 86.0829C379.715 91.5213 375.524 97.1129 371.111 102.726C357.272 120.328 341.337 138.004 320.167 151.273Z" fill="url(#paint0_linear_878_101837)"/>
<path fill-rule="evenodd" clip-rule="evenodd" d="M1.84851 -0.673068C1.47668 -1.13716 0.799194 -1.21202 0.335083 -0.840269C-0.129028 -0.468519 -0.203857 0.209066 0.167847 0.673159L1.00818 4.56572e-05C0.167847 0.673159 0.168457 0.673929 0.169312 0.674984L0.172119 0.678519L0.218262 0.735271C0.249756 0.773909 0.296143 0.83029 0.3573 0.903843C0.479736 1.05095 0.661743 1.26674 0.903931 1.54663C1.38843 2.10641 2.11414 2.92263 3.08716 3.95862C5.0332 6.03057 7.96863 8.98175 11.9424 12.5187C19.89 19.5927 31.9916 29.0105 48.6378 38.4235C81.9369 57.2533 133.396 76.0492 206.12 76.0492C242.123 76.0492 267.741 87.5253 287.518 104.713C307.333 121.933 321.33 144.926 334.001 168.058C336.319 172.291 338.595 176.532 340.854 180.742C350.905 199.474 360.638 217.612 372.447 231.867C386.966 249.394 404.723 261.185 430.209 261.185C480.908 261.185 514.951 225.367 546.967 190.019C548.107 188.76 549.244 187.502 550.38 186.247C565.241 169.809 579.777 153.732 595.526 141.462C612.456 128.275 630.699 119.561 652.12 119.561C673.474 119.561 692.031 130.169 709.517 146.295C725.602 161.127 740.665 180.515 756.085 200.363C757.441 202.108 758.799 203.856 760.161 205.605C776.985 227.211 794.361 248.916 813.959 265.213C833.575 281.524 855.491 292.48 881.394 292.48C932.961 292.48 972.858 262.866 1008.45 233.512C1011.82 230.736 1015.15 227.963 1018.44 225.217C1032.6 213.412 1046.17 202.109 1059.68 193.21C1076.33 182.249 1092.78 175.037 1109.99 175.037C1110.59 175.037 1111.07 174.555 1111.07 173.96C1111.07 173.365 1110.59 172.883 1109.99 172.883C1092.17 172.883 1075.3 180.352 1058.5 191.411C1044.87 200.383 1031.19 211.786 1017.02 223.597C1013.74 226.335 1010.43 229.094 1007.08 231.851C971.472 261.219 932.113 290.327 881.394 290.327C856.155 290.327 834.71 279.668 815.336 263.557C795.943 247.431 778.699 225.907 761.86 204.282C760.493 202.526 759.127 200.768 757.764 199.013C742.373 179.202 727.201 159.672 710.977 144.712C693.305 128.415 674.247 117.408 652.12 117.408C630.06 117.408 611.362 126.397 594.203 139.764C578.298 152.154 563.639 168.369 548.812 184.769C547.667 186.037 546.52 187.305 545.371 188.573C513.25 224.037 479.818 259.031 430.209 259.031C405.54 259.031 388.341 247.68 374.105 230.494C362.447 216.421 352.842 198.524 342.795 179.803C340.526 175.574 338.233 171.302 335.889 167.023C323.208 143.871 309.058 120.58 288.93 103.087C268.764 85.5618 242.646 73.8959 206.12 73.8959C133.787 73.8959 82.6903 55.2056 49.6978 36.5491C33.1981 27.219 21.2198 17.8937 13.3741 10.9103C9.45117 7.41858 6.56165 4.51254 4.65674 2.48442C3.70435 1.47038 2.99817 0.675862 2.5321 0.137414C2.29907 -0.131808 2.1261 -0.337006 2.01245 -0.473611C1.95557 -0.541914 1.91357 -0.593067 1.88623 -0.626501L1.85632 -0.663289L1.84973 -0.671581L1.84851 -0.673068Z" fill="url(#paint1_linear_878_101837)"/>
<defs>
<linearGradient id="paint0_linear_878_101837" x1="36.8266" y1="58.8384" x2="36.8266" y2="365" gradientUnits="userSpaceOnUse">
<stop stop-color="#FFEE00"/>
<stop offset="1" stop-color="#FF3CB1"/>
</linearGradient>
<linearGradient id="paint1_linear_878_101837" x1="-117.703" y1="365.355" x2="-117.703" y2="2.87119e-05" gradientUnits="userSpaceOnUse">
<stop stop-color="#006DFF"/>
<stop offset="1" stop-color="#1CEC8C"/>
</linearGradient>
</defs>
</svg>
