<?xml version="1.0" standalone="no"?>
<!DOCTYPE svg PUBLIC "-//W3C//DTD SVG 20010904//EN"
 "http://www.w3.org/TR/2001/REC-SVG-20010904/DTD/svg10.dtd">
<svg version="1.0" xmlns="http://www.w3.org/2000/svg"
 width="700.000000pt" height="700.000000pt" viewBox="0 0 700.000000 700.000000"
 preserveAspectRatio="xMidYMid meet">
<metadata>
Created by potrace 1.14, written by Peter Selinger 2001-2017
</metadata>
<g transform="translate(0.000000,700.000000) scale(0.100000,-0.100000)"
fill="#000000" stroke="none">
<path d="M802 6984 c-260 -47 -492 -200 -637 -419 -47 -72 -100 -174 -111
-215 -2 -8 -14 -49 -25 -90 -43 -151 -32 -380 26 -555 60 -183 215 -380 386
-491 594 -387 1388 -30 1492 671 46 309 -55 612 -277 831 -123 121 -256 199
-431 249 -110 32 -305 41 -423 19z"/>
<path d="M3310 6980 c-293 -62 -526 -234 -664 -491 -55 -102 -80 -173 -101
-282 -16 -83 -21 -241 -10 -312 49 -325 252 -602 545 -743 193 -93 407 -120
615 -77 11 2 31 6 44 9 96 21 242 90 332 157 344 254 484 697 349 1099 -24 71
-109 240 -121 240 -4 0 -10 8 -13 18 -9 27 -143 163 -206 210 -170 124 -344
183 -560 187 -91 2 -148 -2 -210 -15z"/>
<path d="M5919 6996 c-2 -2 -24 -6 -49 -10 -184 -24 -381 -126 -531 -275 -233
-231 -325 -543 -264 -886 12 -63 58 -188 96 -257 156 -284 426 -468 738 -505
304 -36 590 63 805 280 187 188 278 405 280 667 1 191 -20 293 -94 443 -129
262 -355 445 -639 518 -68 18 -329 37 -342 25z"/>
<path d="M908 4468 c-327 -20 -626 -210 -785 -497 -140 -251 -159 -553 -54
-832 22 -57 99 -192 136 -239 45 -55 161 -163 217 -201 115 -78 306 -153 422
-164 432 -44 818 164 1002 541 183 375 105 823 -197 1122 -123 122 -339 234
-499 258 -108 16 -148 18 -242 12z"/>
<path d="M3337 4460 c-356 -64 -656 -324 -761 -659 -13 -42 -27 -96 -31 -121
-4 -25 -9 -54 -11 -65 -7 -34 -6 -187 2 -245 25 -205 141 -431 297 -577 477
-446 1245 -309 1536 274 70 141 103 280 101 438 0 115 -10 179 -41 280 -47
154 -130 289 -253 410 -83 83 -136 120 -243 175 -135 68 -236 92 -403 96 -80
1 -167 -1 -193 -6z"/>
<path d="M804 1929 c-215 -41 -371 -124 -519 -273 -92 -93 -142 -164 -195
-279 -64 -141 -84 -235 -84 -397 -1 -173 18 -265 80 -406 58 -133 198 -306
305 -379 24 -17 49 -35 56 -41 23 -22 179 -92 248 -113 95 -28 122 -32 255
-36 430 -17 816 260 951 679 11 33 21 71 23 85 3 14 8 46 12 71 10 66 11 188
2 245 -4 27 -10 64 -12 80 -10 59 -49 171 -87 246 -191 380 -625 597 -1035
518z"/>
<path d="M5958 1944 c-2 -1 -29 -5 -61 -9 -85 -9 -219 -50 -301 -91 -512 -257
-694 -887 -398 -1379 44 -72 66 -100 152 -186 114 -115 251 -193 425 -245 79
-23 108 -27 245 -27 132 -1 167 2 240 21 382 104 644 384 725 777 20 95 13
294 -14 400 -109 430 -480 727 -923 739 -49 2 -89 2 -90 0z"/>
</g>
</svg>
