<svg width="570" height="353" viewBox="0 0 570 353" fill="none" xmlns="http://www.w3.org/2000/svg">
<path d="M180 3C180 1.34315 181.343 0 183 0H330.953C332.61 0 333.953 1.34315 333.953 3V3.99898C333.953 5.65583 332.61 6.99898 330.953 6.99898H183C181.343 6.99898 180 5.65584 180 3.99898V3Z" fill="#894545"/>
<path d="M192.122 3C192.122 1.34315 193.465 0 195.122 0H379.442C381.099 0 382.442 1.34315 382.442 3V3.99898C382.442 5.65583 381.099 6.99898 379.442 6.99898H195.122C193.465 6.99898 192.122 5.65584 192.122 3.99898V3Z" fill="#B75C5C"/>
<path d="M333.953 3C333.953 1.34315 335.296 0 336.953 0H514C515.657 0 517 1.34315 517 3V3.99898C517 5.65583 515.657 6.99898 514 6.99898H336.953C335.296 6.99898 333.953 5.65584 333.953 3.99898V3Z" fill="#44D2A8"/>
<path d="M285.464 3C285.464 1.34315 286.807 0 288.464 0H355.198C356.855 0 358.198 1.34315 358.198 3V3.99898C358.198 5.65583 356.855 6.99898 355.198 6.99898H288.464C286.807 6.99898 285.464 5.65584 285.464 3.99898V3Z" fill="#EA8F8F"/>
<path d="M281.827 3C281.827 1.34315 283.17 0 284.827 0H334.59C336.247 0 337.59 1.34315 337.59 3V3.99898C337.59 5.65583 336.247 6.99898 334.59 6.99898H284.827C283.17 6.99898 281.827 5.65584 281.827 3.99898V3Z" fill="#E57373"/>
<path d="M244 26.9966C244 25.3397 245.343 23.9966 247 23.9966H324.621C326.278 23.9966 327.621 25.3397 327.621 26.9966V27.9956C327.621 29.6524 326.278 30.9956 324.621 30.9956H247C245.343 30.9956 244 29.6524 244 27.9956V26.9966Z" fill="#903A57"/>
<path d="M270.662 26.9966C270.662 25.3397 272.005 23.9966 273.662 23.9966H373.097C374.754 23.9966 376.097 25.3397 376.097 26.9966V27.9956C376.097 29.6524 374.754 30.9956 373.097 30.9956H273.662C272.005 30.9956 270.662 29.6524 270.662 27.9956V26.9966Z" fill="#C04E74"/>
<path d="M327.621 26.9966C327.621 25.3397 328.964 23.9966 330.621 23.9966H567C568.657 23.9966 570 25.3397 570 26.9966V27.9956C570 29.6524 568.657 30.9956 567 30.9956H330.621C328.964 30.9956 327.621 29.6524 327.621 27.9956V26.9966Z" fill="#44D2A8"/>
<path d="M279.145 26.9966C279.145 25.3397 280.488 23.9966 282.145 23.9966H360.977C362.634 23.9966 363.977 25.3397 363.977 26.9966V27.9956C363.977 29.6524 362.634 30.9956 360.977 30.9956H282.145C280.488 30.9956 279.145 29.6524 279.145 27.9956V26.9966Z" fill="#F381A7"/>
<path d="M279.145 26.9966C279.145 25.3397 280.488 23.9966 282.145 23.9966H337.951C339.608 23.9966 340.951 25.3397 340.951 26.9966V27.9956C340.951 29.6524 339.608 30.9956 337.951 30.9956H282.145C280.488 30.9956 279.145 29.6524 279.145 27.9956V26.9966Z" fill="#F06192"/>
<path d="M123 51.9929C123 50.3361 124.343 48.9929 126 48.9929H288.522C290.179 48.9929 291.522 50.3361 291.522 51.9929V52.9919C291.522 54.6488 290.179 55.9919 288.522 55.9919H126C124.343 55.9919 123 54.6488 123 52.9919V51.9929Z" fill="#7F2A32"/>
<path d="M191.797 51.9929C191.797 50.3361 193.14 48.9929 194.797 48.9929H367.018C368.675 48.9929 370.018 50.3361 370.018 51.9929V52.9919C370.018 54.6488 368.675 55.9919 367.018 55.9919H194.797C193.14 55.9919 191.797 54.6488 191.797 52.9919V51.9929Z" fill="#9453A0"/>
<path d="M321.522 51.9929C321.522 50.3361 322.866 48.9929 324.522 48.9929H561C562.657 48.9929 564 50.3361 564 51.9929V52.9919C564 54.6488 562.657 55.9919 561 55.9919H324.522C322.866 55.9919 321.522 54.6488 321.522 52.9919V51.9929Z" fill="#319E7E"/>
<path d="M273.026 51.9929C273.026 50.3361 274.37 48.9929 276.026 48.9929H419.15C420.807 48.9929 422.15 50.3361 422.15 51.9929V52.9919C422.15 54.6488 420.807 55.9919 419.15 55.9919H276.026C274.37 55.9919 273.026 54.6488 273.026 52.9919V51.9929Z" fill="#C786D3"/>
<path d="M200.283 51.9929C200.283 50.3361 201.626 48.9929 203.283 48.9929H310.035C311.692 48.9929 313.035 50.3361 313.035 51.9929V52.9919C313.035 54.6488 311.692 55.9919 310.035 55.9919H203.283C201.626 55.9919 200.283 54.6488 200.283 52.9919V51.9929Z" fill="#BA68C8"/>
<path d="M259 75.9893C259 74.3324 260.343 72.9893 262 72.9893H313.085C314.742 72.9893 316.085 74.3324 316.085 75.9893V76.9882C316.085 78.6451 314.742 79.9882 313.085 79.9882H262C260.343 79.9882 259 78.6451 259 76.9882V75.9893Z" fill="#59467B"/>
<path d="M300.296 75.9893C300.296 74.3324 301.639 72.9893 303.296 72.9893H361.668C363.325 72.9893 364.668 74.3324 364.668 75.9893V76.9882C364.668 78.6451 363.325 79.9882 361.668 79.9882H303.296C301.639 79.9882 300.296 78.6451 300.296 76.9882V75.9893Z" fill="#775DA4"/>
<path d="M362.239 75.9893C362.239 74.3324 363.582 72.9893 365.239 72.9893H556C557.657 72.9893 559 74.3324 559 75.9893V76.9882C559 78.6451 557.657 79.9882 556 79.9882H365.239C363.582 79.9882 362.239 78.6451 362.239 76.9882V75.9893Z" fill="#24765E"/>
<path d="M347.664 75.9893C347.664 74.3324 349.007 72.9893 350.664 72.9893H400.535C402.191 72.9893 403.535 74.3324 403.535 75.9893V76.9882C403.535 78.6451 402.191 79.9882 400.535 79.9882H350.664C349.007 79.9882 347.664 78.6451 347.664 76.9882V75.9893Z" fill="#AA90D7"/>
<path d="M342.806 75.9893C342.806 74.3324 344.149 72.9893 345.806 72.9893H378.672C380.329 72.9893 381.672 74.3324 381.672 75.9893V76.9882C381.672 78.6451 380.329 79.9882 378.672 79.9882H345.806C344.149 79.9882 342.806 78.6451 342.806 76.9882V75.9893Z" fill="#9575CD"/>
<path d="M67 100.485C67 98.5526 68.5668 96.9858 70.4995 96.9858H306.001C307.933 96.9858 309.5 98.5526 309.5 100.485C309.5 102.418 307.933 103.985 306.001 103.985H70.4995C68.5668 103.985 67 102.418 67 100.485Z" fill="#7F2A32"/>
<path d="M151.875 100.485C151.875 98.5526 153.442 96.9858 155.374 96.9858H354.501C356.433 96.9858 358 98.5526 358 100.485C358 102.418 356.433 103.985 354.501 103.985H155.374C153.442 103.985 151.875 102.418 151.875 100.485Z" fill="#BD4450"/>
<path d="M309.5 100.485C309.5 98.5526 311.067 96.9858 312.999 96.9858H548.501C550.433 96.9858 552 98.5526 552 100.485C552 102.418 550.433 103.985 548.501 103.985H313C311.067 103.985 309.5 102.418 309.5 100.485Z" fill="#319E7E"/>
<path d="M261 100.485C261 98.5526 262.567 96.9858 264.499 96.9858H531.526C533.458 96.9858 535.025 98.5526 535.025 100.485C535.025 102.418 533.458 103.985 531.526 103.985H264.499C262.567 103.985 261 102.418 261 100.485Z" fill="#44D2A8"/>
<path d="M229.475 100.485C229.475 98.5526 231.041 96.9858 232.974 96.9858H291.45C293.383 96.9858 294.95 98.5526 294.95 100.485C294.95 102.418 293.383 103.985 291.45 103.985H232.974C231.041 103.985 229.475 102.418 229.475 100.485Z" fill="#7986CB"/>
<g filter="url(#filter0_d_878_101940)">
<path d="M131 125.983C131 122.669 133.686 119.983 137 119.983H291.27C294.584 119.983 297.27 122.669 297.27 125.983V128.98C297.27 132.294 294.584 134.98 291.27 134.98H137C133.686 134.98 131 132.294 131 128.98V125.983Z" fill="#BD4450"/>
<path d="M164.982 125.983C164.982 122.669 167.669 119.983 170.982 119.983H339.816C343.13 119.983 345.816 122.669 345.816 125.983V128.98C345.816 132.294 343.13 134.98 339.816 134.98H170.982C167.669 134.98 164.982 132.294 164.982 128.98V125.983Z" fill="#409CC5"/>
<path d="M297.271 125.983C297.271 122.669 299.957 119.983 303.271 119.983H534C537.314 119.983 540 122.669 540 125.983V128.98C540 132.294 537.314 134.98 534 134.98H303.271C299.957 134.98 297.271 132.294 297.271 128.98V125.983Z" fill="#319E7E"/>
<path d="M266.929 125.983C266.929 122.669 269.615 119.983 272.929 119.983H447.831C451.145 119.983 453.831 122.669 453.831 125.983V128.98C453.831 132.294 451.145 134.98 447.831 134.98H272.929C269.615 134.98 266.929 132.294 266.929 128.98V125.983Z" fill="#72CFF8"/>
<path d="M213.528 125.983C213.528 122.669 216.215 119.983 219.528 119.983H412.635C415.949 119.983 418.635 122.669 418.635 125.983V128.98C418.635 132.294 415.949 134.98 412.635 134.98H219.528C216.215 134.98 213.528 132.294 213.528 128.98V125.983Z" fill="#50C3F7"/>
</g>
<path d="M182 154.978C182 153.321 183.343 151.978 185 151.978H288C289.657 151.978 291 153.321 291 154.978V155.977C291 157.634 289.657 158.977 288 158.977H185C183.343 158.977 182 157.634 182 155.977V154.978Z" fill="#2D7C87"/>
<path d="M195.322 154.978C195.322 153.321 196.665 151.978 198.322 151.978H336.444C338.101 151.978 339.444 153.321 339.444 154.978V155.977C339.444 157.634 338.101 158.977 336.444 158.977H198.322C196.665 158.977 195.322 157.634 195.322 155.977V154.978Z" fill="#3DA6B4"/>
<path d="M291 154.978C291 153.321 292.343 151.978 294 151.978H506C507.657 151.978 509 153.321 509 154.978V155.977C509 157.634 507.657 158.977 506 158.977H294C292.343 158.977 291 157.634 291 155.977V154.978Z" fill="#44D2A8"/>
<path d="M242.556 154.978C242.556 153.321 243.899 151.978 245.556 151.978H388.522C390.179 151.978 391.522 153.321 391.522 154.978V155.977C391.522 157.634 390.179 158.977 388.522 158.977H245.556C243.899 158.977 242.556 157.634 242.556 155.977V154.978Z" fill="#70D9E7"/>
<path d="M217.122 154.978C217.122 153.321 218.465 151.978 220.122 151.978H315.855C317.512 151.978 318.855 153.321 318.855 154.978V155.977C318.855 157.634 317.512 158.977 315.855 158.977H220.122C218.465 158.977 217.122 157.634 217.122 155.977V154.978Z" fill="#4DD0E1"/>
<path d="M164 178.974C164 177.318 165.343 175.974 167 175.974H282.076C283.733 175.974 285.076 177.318 285.076 178.974V179.973C285.076 181.63 283.733 182.973 282.076 182.973H167C165.343 182.973 164 181.63 164 179.973V178.974Z" fill="#2E6D67"/>
<path d="M264.493 178.974C264.493 177.318 265.836 175.974 267.493 175.974H330.507C332.163 175.974 333.507 177.318 333.507 178.974V179.973C333.507 181.63 332.163 182.973 330.507 182.973H267.493C265.836 182.973 264.493 181.63 264.493 179.973V178.974Z" fill="#3D9189"/>
<path d="M297.184 178.974C297.184 177.318 298.527 175.974 300.184 175.974H431C432.657 175.974 434 177.318 434 178.974V179.973C434 181.63 432.657 182.973 431 182.973H300.184C298.527 182.973 297.184 181.63 297.184 179.973V178.974Z" fill="#94D3CD"/>
<path d="M295.973 178.974C295.973 177.318 297.316 175.974 298.973 175.974H341.403C343.06 175.974 344.403 177.318 344.403 178.974V179.973C344.403 181.63 343.06 182.973 341.403 182.973H298.973C297.316 182.973 295.973 181.63 295.973 179.973V178.974Z" fill="#70C4BC"/>
<path d="M291.13 178.974C291.13 177.318 292.473 175.974 294.13 175.974H311.134C312.791 175.974 314.134 177.318 314.134 178.974V179.973C314.134 181.63 312.791 182.973 311.134 182.973H294.13C292.473 182.973 291.13 181.63 291.13 179.973V178.974Z" fill="#4CB6AC"/>
<path d="M209 202.971C209 201.314 210.343 199.971 212 199.971H276.295C277.952 199.971 279.295 201.314 279.295 202.971V203.97C279.295 205.627 277.952 206.97 276.295 206.97H212C210.343 206.97 209 205.627 209 203.97V202.971Z" fill="#4D774F"/>
<path d="M225.968 202.971C225.968 201.314 227.311 199.971 228.968 199.971H324.774C326.431 199.971 327.774 201.314 327.774 202.971V203.97C327.774 205.627 326.431 206.97 324.774 206.97H228.968C227.311 206.97 225.968 205.627 225.968 203.97V202.971Z" fill="#679F69"/>
<path d="M273.844 202.971C273.844 201.314 275.187 199.971 276.844 199.971H489C490.657 199.971 492 201.314 492 202.971V203.97C492 205.627 490.657 206.97 489 206.97H276.844C275.187 206.97 273.844 205.627 273.844 203.97V202.971Z" fill="#319E7E"/>
<path d="M255.056 202.971C255.056 201.314 256.399 199.971 258.056 199.971H327.199C328.855 199.971 330.199 201.314 330.199 202.971V203.97C330.199 205.627 328.855 206.97 327.199 206.97H258.056C256.399 206.97 255.056 205.627 255.056 203.97V202.971Z" fill="#9AD29C"/>
<path d="M246.571 202.971C246.571 201.314 247.914 199.971 249.571 199.971H260.539C262.196 199.971 263.539 201.314 263.539 202.971V203.97C263.539 205.627 262.196 206.97 260.539 206.97H249.571C247.914 206.97 246.571 205.627 246.571 203.97V202.971Z" fill="#80C784"/>
<path d="M189 227.967C189 226.31 190.343 224.967 192 224.967H269.548C271.205 224.967 272.548 226.31 272.548 227.967V228.966C272.548 230.623 271.205 231.966 269.548 231.966H192C190.343 231.966 189 230.623 189 228.966V227.967Z" fill="#687F4D"/>
<path d="M250.753 227.967C250.753 226.31 252.096 224.967 253.753 224.967H317.982C319.639 224.967 320.982 226.31 320.982 227.967V228.966C320.982 230.623 319.639 231.966 317.982 231.966H253.753C252.096 231.966 250.753 230.623 250.753 228.966V227.967Z" fill="#8BAA67"/>
<path d="M272.548 227.967C272.548 226.31 273.891 224.967 275.548 224.967H387C388.657 224.967 390 226.31 390 227.967V228.966C390 230.623 388.657 231.966 387 231.966H275.548C273.891 231.966 272.548 230.623 272.548 228.966V227.967Z" fill="#CEE5B3"/>
<path d="M281.024 227.967C281.024 226.31 282.368 224.967 284.024 224.967H361.573C363.229 224.967 364.573 226.31 364.573 227.967V228.966C364.573 230.623 363.229 231.966 361.573 231.966H284.024C282.368 231.966 281.024 230.623 281.024 228.966V227.967Z" fill="#BEDD9A"/>
<path d="M268.916 227.967C268.916 226.31 270.259 224.967 271.916 224.967H303.452C305.109 224.967 306.452 226.31 306.452 227.967V228.966C306.452 230.623 305.109 231.966 303.452 231.966H271.916C270.259 231.966 268.916 230.623 268.916 228.966V227.967Z" fill="#AED581"/>
<path d="M53 251.964C53 250.307 54.3431 248.964 56 248.964H263.35C265.007 248.964 266.35 250.307 266.35 251.964V252.963C266.35 254.62 265.007 255.963 263.35 255.963H56C54.3432 255.963 53 254.62 53 252.963V251.964Z" fill="#7F2A32"/>
<path d="M72.3955 251.964C72.3955 250.307 73.7387 248.964 75.3955 248.964H311.839C313.496 248.964 314.839 250.307 314.839 251.964V252.963C314.839 254.62 313.496 255.963 311.839 255.963H75.3955C73.7386 255.963 72.3955 254.62 72.3955 252.963V251.964Z" fill="#BD4450"/>
<path d="M266.351 251.964C266.351 250.307 267.694 248.964 269.351 248.964H427C428.657 248.964 430 250.307 430 251.964V252.963C430 254.62 428.657 255.963 427 255.963H269.351C267.694 255.963 266.351 254.62 266.351 252.963V251.964Z" fill="#EAF0AC"/>
<path d="M217.861 251.964C217.861 250.307 219.204 248.964 220.861 248.964H382.148C383.804 248.964 385.148 250.307 385.148 251.964V252.963C385.148 254.62 383.804 255.963 382.148 255.963H220.861C219.204 255.963 217.861 254.62 217.861 252.963V251.964Z" fill="#E3EB90"/>
<path d="M204.527 251.964C204.527 250.307 205.87 248.964 207.527 248.964H296.08C297.737 248.964 299.08 250.307 299.08 251.964V252.963C299.08 254.62 297.737 255.963 296.08 255.963H207.527C205.87 255.963 204.527 254.62 204.527 252.963V251.964Z" fill="#DCE775"/>
<path d="M69 275.96C69 274.303 70.3431 272.96 72 272.96H257.532C259.189 272.96 260.532 274.303 260.532 275.96V276.959C260.532 278.616 259.189 279.959 257.532 279.959H72C70.3431 279.959 69 278.616 69 276.959V275.96Z" fill="#7F2A32"/>
<path d="M82.335 275.96C82.335 274.303 83.6781 272.96 85.335 272.96H306.022C307.679 272.96 309.022 274.303 309.022 275.96V276.959C309.022 278.616 307.679 279.959 306.022 279.959H85.335C83.6781 279.959 82.335 278.616 82.335 276.959V275.96Z" fill="#BD4450"/>
<path d="M260.532 275.96C260.532 274.303 261.875 272.96 263.532 272.96H403C404.657 272.96 406 274.303 406 275.96V276.959C406 278.616 404.657 279.959 403 279.959H263.532C261.875 279.959 260.532 278.616 260.532 276.959V275.96Z" fill="#FFF6AC"/>
<path d="M212.043 275.96C212.043 274.303 213.386 272.96 215.043 272.96H324.205C325.862 272.96 327.205 274.303 327.205 275.96V276.959C327.205 278.616 325.862 279.959 324.205 279.959H215.043C213.386 279.959 212.043 278.616 212.043 276.959V275.96Z" fill="#FFF391"/>
<path d="M139.31 275.96C139.31 274.303 140.653 272.96 142.31 272.96H280.565C282.222 272.96 283.565 274.303 283.565 275.96V276.959C283.565 278.616 282.222 279.959 280.565 279.959H142.31C140.653 279.959 139.31 278.616 139.31 276.959V275.96Z" fill="#E25563"/>
<path d="M102 299.957C102 298.3 103.343 296.957 105 296.957H251.727C253.384 296.957 254.727 298.3 254.727 299.957V300.956C254.727 302.613 253.384 303.956 251.727 303.956H105C103.343 303.956 102 302.613 102 300.956V299.957Z" fill="#BD4450"/>
<path d="M126.242 299.957C126.242 298.3 127.585 296.957 129.242 296.957H300.212C301.869 296.957 303.212 298.3 303.212 299.957V300.956C303.212 302.613 301.869 303.956 300.212 303.956H129.242C127.585 303.956 126.242 302.613 126.242 300.956V299.957Z" fill="#E25563"/>
<path d="M254.728 299.957C254.728 298.3 256.071 296.957 257.728 296.957H379C380.657 296.957 382 298.3 382 299.957V300.956C382 302.613 380.657 303.956 379 303.956H257.728C256.071 303.956 254.728 302.613 254.728 300.956V299.957Z" fill="#FFE595"/>
<path d="M264.424 299.957C264.424 298.3 265.767 296.957 267.424 296.957H351.121C352.778 296.957 354.121 298.3 354.121 299.957V300.956C354.121 302.613 352.778 303.956 351.121 303.956H267.424C265.767 303.956 264.424 302.613 264.424 300.956V299.957Z" fill="#FFDD72"/>
<path d="M237.758 299.957C237.758 298.3 239.101 296.957 240.758 296.957H318.394C320.051 296.957 321.394 298.3 321.394 299.957V300.956C321.394 302.613 320.051 303.956 318.394 303.956H240.758C239.101 303.956 237.758 302.613 237.758 300.956V299.957Z" fill="#FFD54F"/>
<path d="M76 324.953C76 323.296 77.3431 321.953 79 321.953H245.393C247.05 321.953 248.393 323.296 248.393 324.953V325.952C248.393 327.609 247.05 328.952 245.393 328.952H79C77.3431 328.952 76 327.609 76 325.952V324.953Z" fill="#7F2A32"/>
<path d="M139.13 324.953C139.13 323.296 140.473 321.953 142.13 321.953H293.954C295.611 321.953 296.954 323.296 296.954 324.953V325.952C296.954 327.609 295.611 328.952 293.954 328.952H142.13C140.473 328.952 139.13 327.609 139.13 325.952V324.953Z" fill="#BD4450"/>
<path d="M199.832 324.953C199.832 323.296 201.175 321.953 202.832 321.953H344.944C346.601 321.953 347.944 323.296 347.944 324.953V325.952C347.944 327.609 346.601 328.952 344.944 328.952H202.832C201.175 328.952 199.832 327.609 199.832 325.952V324.953Z" fill="#FFC570"/>
<path d="M186.478 324.953C186.478 323.296 187.821 321.953 189.478 321.953H292.741C294.398 321.953 295.741 323.296 295.741 324.953V325.952C295.741 327.609 294.398 328.952 292.741 328.952H189.478C187.821 328.952 186.478 327.609 186.478 325.952V324.953Z" fill="#E25563"/>
<path d="M0 348.95C0 347.293 1.34315 345.95 3 345.95H239.424C241.081 345.95 242.424 347.293 242.424 348.95V349.949C242.424 351.606 241.081 352.949 239.424 352.949H3C1.34315 352.949 0 351.606 0 349.949V348.95Z" fill="#7F2A32"/>
<path d="M48.4844 348.95C48.4844 347.293 49.8275 345.95 51.4844 345.95H160.636C162.293 345.95 163.636 347.293 163.636 348.95V349.949C163.636 351.606 162.293 352.949 160.636 352.949H51.4844C49.8275 352.949 48.4844 351.606 48.4844 349.949V348.95Z" fill="#BD4450"/>
<path d="M242.424 348.95C242.424 347.293 243.767 345.95 245.424 345.95H357C358.656 345.95 360 347.293 360 348.95V349.949C360 351.606 358.656 352.949 357 352.949H245.424C243.767 352.949 242.424 351.606 242.424 349.949V348.95Z" fill="#FFB8A2"/>
<path d="M193.939 348.95C193.939 347.293 195.283 345.95 196.939 345.95H310.939C312.596 345.95 313.939 347.293 313.939 348.95V349.949C313.939 351.606 312.596 352.949 310.939 352.949H196.939C195.283 352.949 193.939 351.606 193.939 349.949V348.95Z" fill="#FFA183"/>
<path d="M121.212 348.95C121.212 347.293 122.555 345.95 124.212 345.95H250.333C251.99 345.95 253.333 347.293 253.333 348.95V349.949C253.333 351.606 251.99 352.949 250.333 352.949H124.212C122.555 352.949 121.212 351.606 121.212 349.949V348.95Z" fill="#E25563"/>
<defs>
<filter id="filter0_d_878_101940" x="129" y="119.983" width="413" height="18.9978" filterUnits="userSpaceOnUse" color-interpolation-filters="sRGB">
<feFlood flood-opacity="0" result="BackgroundImageFix"/>
<feColorMatrix in="SourceAlpha" type="matrix" values="0 0 0 0 0 0 0 0 0 0 0 0 0 0 0 0 0 0 127 0" result="hardAlpha"/>
<feOffset dy="2"/>
<feGaussianBlur stdDeviation="1"/>
<feColorMatrix type="matrix" values="0 0 0 0 0 0 0 0 0 0 0 0 0 0 0 0 0 0 0.5 0"/>
<feBlend mode="normal" in2="BackgroundImageFix" result="effect1_dropShadow_878_101940"/>
<feBlend mode="normal" in="SourceGraphic" in2="effect1_dropShadow_878_101940" result="shape"/>
</filter>
</defs>
</svg>
